<svg width="563" height="558" viewBox="0 0 563 558" fill="none" xmlns="http://www.w3.org/2000/svg">
<path opacity="0.1" fill-rule="evenodd" clip-rule="evenodd" d="M410.767 138.998C494.808 119.251 567.592 -45.5616 635.857 12.2197C707.219 72.6227 589.337 204.331 603.932 302.498C612.877 362.66 709.45 386.214 700.403 446.356C691.279 507.005 611.049 512.932 566.712 549.918C533.693 577.462 508.835 612.62 473.226 635.868C427.543 665.692 382.848 710.936 330.157 704.355C276.367 697.637 246.066 634.612 200.738 601.835C133.685 553.347 -2.77828 554.294 0.0430814 465.643C3.14397 368.209 158.18 377.337 210.381 298.845C246.129 245.093 190.775 144.324 239.682 105.311C287.658 67.0407 352.934 152.588 410.767 138.998Z" fill="#1593DB"/>
</svg>
