<svg width="588" height="812" viewBox="0 0 588 812" fill="none" xmlns="http://www.w3.org/2000/svg">
<path opacity="0.1" fill-rule="evenodd" clip-rule="evenodd" d="M217.649 5.15893C298.441 -15.6883 379.834 41.1608 445.893 95.9067C510.841 149.732 566.666 221.488 583.562 308.408C599.628 391.053 563.826 471.663 534.106 549.701C506.756 621.515 486.133 712.462 419.267 739.806C352.356 767.169 288.457 668.48 217.649 679.112C125.189 692.995 59.587 839.433 -28.8934 807.099C-108.874 777.871 -98.3572 645.779 -117.95 556.47C-135.826 474.989 -173.358 386.331 -137.46 312.228C-102.206 239.453 -2.70109 247.568 56.4852 196.388C120.272 141.231 138.376 25.6142 217.649 5.15893Z" fill="#1593DB"/>
</svg>
